<svg xmlns="http://www.w3.org/2000/svg" xmlns:xlink="http://www.w3.org/1999/xlink" width="500" zoomAndPan="magnify" viewBox="0 0 375 374.999991" height="500" preserveAspectRatio="xMidYMid meet" version="1.0"><defs><g/><clipPath id="291dad798a"><path d="M 141.824219 157 L 188 157 L 188 208.78125 L 141.824219 208.78125 Z M 141.824219 157 " clip-rule="nonzero"/></clipPath><clipPath id="a8c2c22521"><path d="M 187 157 L 233.324219 157 L 233.324219 208.78125 L 187 208.78125 Z M 187 157 " clip-rule="nonzero"/></clipPath><clipPath id="7be2a64424"><path d="M 193 118.78125 L 198 118.78125 L 198 124 L 193 124 Z M 193 118.78125 " clip-rule="nonzero"/></clipPath><clipPath id="642a3be5a7"><path d="M 114 92 L 258.152344 92 L 258.152344 241 L 114 241 Z M 114 92 " clip-rule="nonzero"/></clipPath></defs><rect x="-37.5" width="450" fill="#ffffff" y="-37.499999" height="449.999989" fill-opacity="1"/><rect x="-37.5" width="450" fill="#ffffff" y="-37.499999" height="449.999989" fill-opacity="1"/><rect x="-37.5" width="450" fill="#ffffff" y="-37.499999" height="449.999989" fill-opacity="1"/><g clip-path="url(#291dad798a)"><path fill="#3871c1" d="M 160.894531 197.171875 C 163.566406 195.625 165.414062 194.863281 167.804688 194.148438 C 170.113281 193.457031 175.5 193.765625 175.398438 192.703125 C 175.320312 191.863281 172.40625 191.429688 167.519531 192.128906 C 163.695312 192.675781 177.414062 187.71875 176.792969 186.3125 C 176.179688 184.921875 166.789062 189.800781 166.128906 189.457031 C 165.007812 188.875 175.503906 181.988281 174.882812 180.972656 C 174.027344 179.566406 164.929688 187.140625 164.132812 187.09375 C 163.335938 187.050781 171.492188 180.09375 170.59375 179.136719 C 169.371094 177.824219 164.800781 183.496094 162.332031 185.683594 C 159.863281 187.871094 158.285156 185.839844 159.28125 181.628906 C 159.984375 178.648438 157.472656 176.238281 156.566406 181.75 C 156.28125 183.488281 155.746094 185.160156 155.402344 188.449219 C 154.996094 192.320312 154.199219 194.023438 149.960938 198.960938 L 141.828125 158.054688 C 167.449219 155.5 187.578125 168.90625 187.578125 168.90625 L 187.578125 208.765625 C 176.882812 200.625 165.125 200.023438 157.035156 200.988281 C 158.847656 198.984375 160.269531 197.535156 160.894531 197.171875 " fill-opacity="1" fill-rule="nonzero"/></g><g clip-path="url(#a8c2c22521)"><path fill="#51ade5" d="M 214.257812 197.171875 C 211.589844 195.625 209.738281 194.863281 207.347656 194.148438 C 205.039062 193.457031 199.652344 193.765625 199.753906 192.703125 C 199.835938 191.863281 202.746094 191.429688 207.632812 192.128906 C 211.457031 192.675781 197.738281 187.71875 198.359375 186.3125 C 198.972656 184.921875 208.363281 189.800781 209.023438 189.457031 C 210.144531 188.875 199.652344 181.992188 200.269531 180.972656 C 201.128906 179.566406 210.222656 187.140625 211.019531 187.09375 C 211.816406 187.050781 203.664062 180.09375 204.558594 179.136719 C 205.78125 177.824219 210.355469 183.496094 212.820312 185.683594 C 215.292969 187.871094 216.867188 185.839844 215.875 181.628906 C 215.167969 178.648438 217.683594 176.238281 218.589844 181.75 C 218.875 183.488281 219.40625 185.160156 219.753906 188.449219 C 220.160156 192.324219 220.957031 194.023438 225.191406 198.960938 L 233.328125 158.054688 C 207.703125 155.5 187.578125 168.90625 187.578125 168.90625 L 187.578125 208.765625 C 198.269531 200.625 210.027344 200.023438 218.117188 200.992188 C 216.304688 198.984375 214.882812 197.535156 214.257812 197.171875 " fill-opacity="1" fill-rule="nonzero"/></g><path fill="#3871c1" d="M 189.421875 161.753906 L 185.734375 161.753906 L 185.734375 158.054688 L 189.421875 158.054688 L 189.421875 161.753906 " fill-opacity="1" fill-rule="nonzero"/><path fill="#3871c1" d="M 178.8125 150.894531 L 175.125 150.894531 L 175.125 147.195312 L 178.8125 147.195312 L 178.8125 150.894531 " fill-opacity="1" fill-rule="nonzero"/><path fill="#3871c1" d="M 195.554688 156.359375 L 191.113281 156.359375 L 191.113281 151.90625 L 195.554688 151.90625 L 195.554688 156.359375 " fill-opacity="1" fill-rule="nonzero"/><path fill="#3871c1" d="M 207.707031 151.433594 L 203.261719 151.433594 L 203.261719 146.984375 L 207.707031 146.984375 L 207.707031 151.433594 " fill-opacity="1" fill-rule="nonzero"/><path fill="#3871c1" d="M 187.953125 138.722656 L 183.511719 138.722656 L 183.511719 134.269531 L 187.953125 134.269531 L 187.953125 138.722656 " fill-opacity="1" fill-rule="nonzero"/><g clip-path="url(#7be2a64424)"><path fill="#3871c1" d="M 197.777344 123.25 L 193.335938 123.25 L 193.335938 118.796875 L 197.777344 118.796875 L 197.777344 123.25 " fill-opacity="1" fill-rule="nonzero"/></g><path fill="#51ade5" d="M 175.683594 144.027344 L 171.242188 144.027344 L 171.242188 139.578125 L 175.683594 139.578125 L 175.683594 144.027344 " fill-opacity="1" fill-rule="nonzero"/><path fill="#51ade5" d="M 197.039062 147.195312 L 191.660156 147.195312 L 191.660156 141.804688 L 197.039062 141.804688 L 197.039062 147.195312 " fill-opacity="1" fill-rule="nonzero"/><path fill="#3871c1" d="M 167.972656 153.589844 L 162.589844 153.589844 L 162.589844 148.195312 L 167.972656 148.195312 L 167.972656 153.589844 " fill-opacity="1" fill-rule="nonzero"/><path fill="#3871c1" d="M 187.578125 152.589844 L 182.195312 152.589844 L 182.195312 147.195312 L 187.578125 147.195312 L 187.578125 152.589844 " fill-opacity="1" fill-rule="nonzero"/><path fill="#51ade5" d="M 185.355469 128.644531 L 179.972656 128.644531 L 179.972656 123.25 L 185.355469 123.25 L 185.355469 128.644531 " fill-opacity="1" fill-rule="nonzero"/><path fill="#51ade5" d="M 179.660156 160.429688 L 174.277344 160.429688 L 174.277344 155.035156 L 179.660156 155.035156 L 179.660156 160.429688 " fill-opacity="1" fill-rule="nonzero"/><path fill="#3871c1" d="M 205.484375 141.804688 L 198.941406 141.804688 L 198.941406 135.246094 L 205.484375 135.246094 L 205.484375 141.804688 " fill-opacity="1" fill-rule="nonzero"/><path fill="#3871c1" d="M 220.796875 152.488281 L 214.253906 152.488281 L 214.253906 145.929688 L 220.796875 145.929688 L 220.796875 152.488281 " fill-opacity="1" fill-rule="nonzero"/><path fill="#3871c1" d="M 171.242188 134.269531 L 164.703125 134.269531 L 164.703125 127.714844 L 171.242188 127.714844 L 171.242188 134.269531 " fill-opacity="1" fill-rule="nonzero"/><path fill="#3871c1" d="M 250.199219 197.398438 C 250.46875 196.828125 250.765625 196.261719 251.023438 195.675781 C 251.277344 195.082031 251.53125 194.488281 251.785156 193.890625 C 251.914062 193.589844 252.039062 193.289062 252.167969 192.988281 C 252.28125 192.683594 252.394531 192.375 252.511719 192.066406 C 252.738281 191.445312 252.964844 190.824219 253.195312 190.199219 C 253.417969 189.570312 253.601562 188.925781 253.804688 188.285156 C 254 187.636719 254.222656 186.996094 254.378906 186.335938 C 254.546875 185.675781 254.71875 185.011719 254.886719 184.34375 L 255.011719 183.84375 L 255.117188 183.339844 C 255.1875 183 255.257812 182.660156 255.324219 182.320312 C 255.902344 179.605469 256.242188 176.800781 256.460938 173.953125 C 256.496094 173.238281 256.535156 172.523438 256.570312 171.804688 C 256.59375 171.445312 256.597656 171.085938 256.597656 170.726562 L 256.597656 169.644531 C 256.628906 168.199219 256.523438 166.75 256.457031 165.292969 C 256.035156 159.476562 254.839844 153.621094 252.824219 148.042969 L 252.449219 146.996094 C 252.316406 146.652344 252.171875 146.308594 252.035156 145.96875 C 251.753906 145.28125 251.476562 144.59375 251.183594 143.914062 C 250.554688 142.574219 249.960938 141.21875 249.246094 139.925781 L 248.726562 138.945312 C 248.558594 138.617188 248.382812 138.296875 248.191406 137.980469 C 247.8125 137.347656 247.4375 136.714844 247.0625 136.082031 C 246.691406 135.449219 246.265625 134.851562 245.867188 134.234375 C 245.460938 133.625 245.0625 133.011719 244.621094 132.433594 C 244.1875 131.84375 243.753906 131.257812 243.324219 130.675781 C 242.878906 130.097656 242.410156 129.546875 241.957031 128.984375 L 241.269531 128.148438 C 241.035156 127.871094 240.789062 127.609375 240.550781 127.339844 C 240.066406 126.808594 239.582031 126.28125 239.101562 125.75 C 238.601562 125.238281 238.09375 124.738281 237.59375 124.238281 C 237.339844 123.988281 237.089844 123.738281 236.839844 123.492188 C 236.582031 123.246094 236.316406 123.015625 236.054688 122.777344 C 235.53125 122.308594 235.011719 121.839844 234.488281 121.371094 C 233.960938 120.914062 233.414062 120.484375 232.875 120.042969 C 231.816406 119.152344 230.6875 118.367188 229.589844 117.566406 C 229.050781 117.152344 228.464844 116.808594 227.910156 116.433594 C 227.34375 116.070312 226.789062 115.695312 226.222656 115.347656 C 225.648438 115.011719 225.078125 114.679688 224.507812 114.351562 C 223.9375 114.019531 223.378906 113.6875 222.792969 113.402344 C 221.632812 112.816406 220.507812 112.199219 219.339844 111.703125 C 214.726562 109.609375 210.125 108.191406 205.808594 107.324219 C 201.488281 106.449219 197.453125 106.136719 193.898438 106.121094 C 193.453125 106.117188 193.015625 106.113281 192.582031 106.113281 C 192.152344 106.109375 191.730469 106.140625 191.316406 106.15625 C 190.484375 106.199219 189.6875 106.21875 188.921875 106.285156 C 187.390625 106.433594 185.988281 106.550781 184.730469 106.765625 C 184.101562 106.859375 183.507812 106.949219 182.949219 107.035156 C 182.394531 107.148438 181.875 107.253906 181.390625 107.351562 C 180.90625 107.449219 180.460938 107.542969 180.050781 107.628906 C 179.644531 107.722656 179.277344 107.824219 178.949219 107.902344 C 177.636719 108.246094 176.9375 108.429688 176.9375 108.429688 C 176.9375 108.429688 177.648438 108.308594 178.984375 108.082031 C 179.320312 108.023438 179.691406 107.953125 180.101562 107.894531 C 180.515625 107.84375 180.964844 107.785156 181.453125 107.726562 C 181.9375 107.667969 182.460938 107.601562 183.019531 107.535156 C 183.578125 107.488281 184.171875 107.4375 184.800781 107.386719 C 186.050781 107.261719 187.449219 107.246094 188.960938 107.195312 C 189.71875 107.183594 190.507812 107.210938 191.324219 107.21875 C 191.730469 107.230469 192.148438 107.21875 192.570312 107.246094 C 192.992188 107.273438 193.421875 107.296875 193.855469 107.324219 C 197.339844 107.539062 201.253906 108.074219 205.410156 109.105469 C 209.558594 110.136719 213.949219 111.6875 218.320312 113.851562 C 219.429688 114.363281 220.492188 114.992188 221.59375 115.585938 C 222.144531 115.878906 222.675781 116.21875 223.210938 116.546875 C 223.75 116.882812 224.289062 117.214844 224.832031 117.550781 C 225.367188 117.898438 225.890625 118.273438 226.421875 118.636719 C 226.949219 119.011719 227.5 119.355469 228.007812 119.761719 C 229.039062 120.558594 230.105469 121.332031 231.101562 122.207031 C 231.605469 122.640625 232.121094 123.058594 232.617188 123.503906 C 233.105469 123.960938 233.597656 124.417969 234.089844 124.878906 C 234.335938 125.109375 234.585938 125.335938 234.824219 125.574219 C 235.058594 125.816406 235.296875 126.058594 235.53125 126.300781 C 236 126.789062 236.472656 127.28125 236.945312 127.769531 C 237.394531 128.28125 237.847656 128.796875 238.300781 129.3125 C 238.523438 129.570312 238.757812 129.824219 238.972656 130.089844 L 239.617188 130.898438 C 240.042969 131.4375 240.484375 131.972656 240.902344 132.523438 C 241.308594 133.082031 241.710938 133.644531 242.121094 134.210938 C 242.535156 134.765625 242.90625 135.355469 243.285156 135.941406 C 243.660156 136.53125 244.0625 137.101562 244.410156 137.707031 C 244.765625 138.3125 245.117188 138.917969 245.472656 139.523438 C 245.652344 139.820312 245.820312 140.132812 245.976562 140.445312 L 246.464844 141.378906 C 247.140625 142.609375 247.699219 143.90625 248.296875 145.179688 C 248.574219 145.828125 248.832031 146.484375 249.097656 147.136719 C 249.230469 147.464844 249.367188 147.789062 249.492188 148.117188 L 249.84375 149.117188 C 251.78125 154.414062 252.921875 159.984375 253.394531 165.519531 C 253.464844 166.90625 253.582031 168.289062 253.570312 169.664062 L 253.582031 170.699219 C 253.589844 171.039062 253.59375 171.382812 253.574219 171.726562 C 253.550781 172.410156 253.527344 173.09375 253.503906 173.777344 C 253.347656 176.496094 253.070312 179.183594 252.566406 181.789062 C 252.507812 182.117188 252.449219 182.441406 252.390625 182.765625 L 252.300781 183.253906 L 252.191406 183.734375 C 252.042969 184.375 251.894531 185.015625 251.75 185.648438 C 251.617188 186.289062 251.414062 186.90625 251.246094 187.53125 C 251.066406 188.148438 250.90625 188.773438 250.710938 189.382812 C 250.507812 189.988281 250.304688 190.59375 250.105469 191.191406 C 250.003906 191.492188 249.902344 191.792969 249.800781 192.089844 C 249.6875 192.382812 249.570312 192.671875 249.457031 192.964844 C 249.230469 193.546875 249.003906 194.125 248.78125 194.703125 C 248.550781 195.277344 248.28125 195.828125 248.039062 196.386719 C 246.042969 200.839844 243.652344 204.816406 241.121094 208.261719 C 238.585938 211.707031 235.917969 214.621094 233.371094 217.011719 C 230.816406 219.394531 228.425781 221.3125 226.355469 222.75 C 225.835938 223.105469 225.355469 223.464844 224.886719 223.769531 C 224.414062 224.074219 223.96875 224.359375 223.558594 224.625 C 223.144531 224.886719 222.765625 225.144531 222.410156 225.355469 C 222.050781 225.566406 221.722656 225.753906 221.429688 225.925781 C 220.84375 226.265625 220.394531 226.527344 220.089844 226.703125 C 219.941406 226.792969 219.824219 226.855469 219.742188 226.894531 C 219.664062 226.9375 219.625 226.957031 219.625 226.957031 C 219.625 226.957031 219.667969 226.941406 219.75 226.90625 C 219.832031 226.875 219.953125 226.820312 220.113281 226.746094 C 220.429688 226.597656 220.902344 226.375 221.515625 226.085938 C 221.820312 225.9375 222.164062 225.773438 222.542969 225.59375 C 222.917969 225.410156 223.3125 225.1875 223.75 224.957031 C 224.1875 224.722656 224.652344 224.46875 225.152344 224.203125 C 225.648438 223.929688 226.15625 223.605469 226.699219 223.277344 C 228.886719 221.972656 231.449219 220.210938 234.175781 217.917969 C 236.90625 215.632812 239.808594 212.808594 242.574219 209.382812 C 245.339844 205.960938 247.972656 201.953125 250.199219 197.398438 " fill-opacity="1" fill-rule="nonzero"/><path fill="#3871c1" d="M 234.390625 211.300781 C 234.59375 211.085938 234.796875 210.875 235 210.660156 C 235.40625 210.230469 235.816406 209.800781 236.226562 209.367188 C 236.636719 208.933594 237.011719 208.460938 237.410156 208.007812 C 237.796875 207.542969 238.210938 207.09375 238.582031 206.609375 C 238.957031 206.125 239.332031 205.636719 239.707031 205.144531 C 239.894531 204.898438 240.082031 204.652344 240.273438 204.402344 C 240.449219 204.148438 240.625 203.890625 240.800781 203.636719 C 241.15625 203.121094 241.511719 202.601562 241.871094 202.082031 C 242.21875 201.554688 242.539062 201.007812 242.875 200.46875 C 243.566406 199.394531 244.15625 198.253906 244.777344 197.121094 C 245.101562 196.558594 245.359375 195.960938 245.648438 195.378906 C 245.921875 194.785156 246.230469 194.207031 246.480469 193.601562 C 246.984375 192.386719 247.527344 191.179688 247.949219 189.921875 C 248.167969 189.292969 248.417969 188.675781 248.605469 188.035156 C 248.800781 187.398438 248.992188 186.757812 249.1875 186.113281 C 249.902344 183.535156 250.511719 180.890625 250.859375 178.195312 L 251.003906 177.1875 C 251.050781 176.851562 251.070312 176.511719 251.105469 176.175781 L 251.296875 174.140625 L 251.386719 172.101562 C 251.398438 171.761719 251.425781 171.421875 251.425781 171.082031 L 251.421875 170.058594 C 251.433594 164.605469 250.632812 159.164062 249.179688 154.003906 C 248.785156 152.722656 248.421875 151.441406 247.941406 150.199219 L 247.605469 149.265625 L 247.433594 148.796875 L 247.242188 148.339844 C 246.988281 147.730469 246.734375 147.125 246.480469 146.519531 C 245.398438 144.128906 244.238281 141.804688 242.890625 139.640625 C 240.265625 135.273438 237.101562 131.453125 233.761719 128.214844 C 230.421875 124.972656 226.882812 122.324219 223.417969 120.242188 C 219.957031 118.152344 216.566406 116.632812 213.496094 115.515625 C 213.113281 115.375 212.738281 115.234375 212.367188 115.097656 C 211.992188 114.976562 211.621094 114.859375 211.257812 114.746094 C 210.527344 114.527344 209.832031 114.285156 209.148438 114.113281 C 207.777344 113.769531 206.53125 113.433594 205.378906 113.230469 C 204.804688 113.117188 204.261719 113.011719 203.753906 112.910156 C 203.238281 112.835938 202.757812 112.769531 202.308594 112.707031 C 201.859375 112.644531 201.445312 112.585938 201.066406 112.53125 C 200.6875 112.480469 200.335938 112.460938 200.027344 112.429688 C 198.785156 112.324219 198.125 112.269531 198.125 112.269531 C 198.125 112.269531 198.777344 112.386719 200.003906 112.609375 C 200.308594 112.667969 200.652344 112.714844 201.023438 112.800781 C 201.394531 112.886719 201.800781 112.980469 202.238281 113.078125 C 202.675781 113.179688 203.148438 113.289062 203.652344 113.402344 C 204.148438 113.539062 204.675781 113.6875 205.230469 113.839844 C 206.351562 114.121094 207.558594 114.550781 208.875 114.984375 C 209.535156 115.203125 210.203125 115.484375 210.902344 115.746094 C 211.25 115.882812 211.605469 116.019531 211.96875 116.160156 C 212.324219 116.316406 212.683594 116.472656 213.050781 116.632812 C 215.984375 117.914062 219.183594 119.597656 222.4375 121.785156 C 225.691406 123.96875 228.988281 126.664062 232.082031 129.890625 C 235.167969 133.113281 238.078125 136.847656 240.480469 141.070312 C 241.726562 143.15625 242.78125 145.390625 243.765625 147.683594 C 243.996094 148.261719 244.226562 148.84375 244.457031 149.425781 L 244.632812 149.863281 L 244.785156 150.308594 L 245.09375 151.203125 C 245.53125 152.386719 245.859375 153.609375 246.222656 154.828125 C 247.535156 159.742188 248.285156 164.894531 248.257812 170.0625 L 248.261719 171.027344 C 248.265625 171.351562 248.238281 171.671875 248.230469 171.996094 L 248.148438 173.929688 L 247.976562 175.855469 C 247.941406 176.175781 247.925781 176.496094 247.878906 176.816406 L 247.746094 177.769531 C 247.433594 180.324219 246.875 182.828125 246.226562 185.289062 C 246.050781 185.894531 245.875 186.503906 245.695312 187.113281 C 245.523438 187.722656 245.292969 188.3125 245.097656 188.910156 C 244.714844 190.113281 244.214844 191.265625 243.761719 192.425781 C 243.535156 193.007812 243.253906 193.5625 243.003906 194.132812 C 242.738281 194.691406 242.507812 195.265625 242.210938 195.804688 C 241.640625 196.898438 241.097656 197.996094 240.460938 199.03125 C 240.152344 199.554688 239.859375 200.085938 239.542969 200.59375 C 239.210938 201.101562 238.886719 201.601562 238.558594 202.101562 C 238.398438 202.351562 238.234375 202.601562 238.074219 202.851562 C 237.898438 203.089844 237.726562 203.332031 237.554688 203.570312 C 237.207031 204.050781 236.863281 204.527344 236.519531 205 C 236.175781 205.476562 235.792969 205.914062 235.4375 206.371094 C 235.070312 206.820312 234.726562 207.285156 234.347656 207.710938 C 233.96875 208.140625 233.589844 208.566406 233.214844 208.988281 C 233.027344 209.199219 232.839844 209.410156 232.652344 209.621094 C 232.457031 209.820312 232.261719 210.023438 232.066406 210.222656 C 228.972656 213.445312 225.679688 216.140625 222.429688 218.328125 C 219.179688 220.511719 215.976562 222.195312 213.039062 223.46875 C 212.3125 223.804688 211.585938 224.074219 210.890625 224.347656 C 210.539062 224.484375 210.199219 224.621094 209.863281 224.75 C 209.527344 224.886719 209.1875 224.984375 208.859375 225.101562 C 208.203125 225.328125 207.570312 225.542969 206.96875 225.746094 C 206.355469 225.921875 205.769531 226.09375 205.214844 226.253906 C 202.992188 226.871094 201.207031 227.261719 199.984375 227.480469 C 199.375 227.601562 198.910156 227.707031 198.589844 227.742188 C 198.273438 227.789062 198.109375 227.816406 198.109375 227.816406 C 198.109375 227.816406 198.273438 227.808594 198.597656 227.789062 C 198.917969 227.78125 199.390625 227.722656 200.011719 227.664062 C 201.253906 227.542969 203.074219 227.332031 205.363281 226.867188 C 205.933594 226.746094 206.539062 226.621094 207.167969 226.488281 C 207.792969 226.324219 208.449219 226.15625 209.132812 225.980469 C 209.472656 225.882812 209.824219 225.808594 210.171875 225.695312 C 210.523438 225.582031 210.878906 225.472656 211.242188 225.355469 C 211.96875 225.125 212.726562 224.894531 213.488281 224.59375 C 216.558594 223.488281 219.949219 221.96875 223.414062 219.878906 C 226.878906 217.792969 230.414062 215.144531 233.757812 211.902344 C 233.96875 211.703125 234.179688 211.5 234.390625 211.300781 " fill-opacity="1" fill-rule="nonzero"/><path fill="#3871c1" d="M 212.09375 220.5 C 214.957031 219.363281 217.753906 217.984375 220.40625 216.347656 C 223.054688 214.703125 225.570312 212.828125 227.910156 210.75 C 230.242188 208.664062 232.410156 206.390625 234.339844 203.9375 C 236.261719 201.484375 237.972656 198.871094 239.445312 196.167969 C 240.9375 193.46875 242.136719 190.648438 243.097656 187.792969 C 244.054688 184.933594 244.78125 182.039062 245.246094 179.152344 C 245.691406 176.261719 245.898438 173.386719 245.898438 170.574219 C 245.914062 167.761719 245.632812 165.015625 245.226562 162.378906 C 245.171875 162.046875 245.117188 161.71875 245.0625 161.394531 C 245.011719 161.066406 244.960938 160.738281 244.882812 160.417969 C 244.746094 159.773438 244.605469 159.136719 244.46875 158.503906 C 244.324219 157.871094 244.140625 157.253906 243.980469 156.632812 C 243.898438 156.328125 243.816406 156.019531 243.734375 155.714844 C 243.636719 155.414062 243.539062 155.113281 243.445312 154.816406 C 242.722656 152.410156 241.78125 150.171875 240.8125 148.066406 C 238.8125 143.875 236.46875 140.308594 234.101562 137.40625 C 231.738281 134.496094 229.371094 132.234375 227.3125 130.527344 C 227.058594 130.3125 226.820312 130.089844 226.570312 129.898438 C 226.316406 129.703125 226.074219 129.515625 225.839844 129.335938 C 225.363281 128.972656 224.929688 128.628906 224.511719 128.320312 C 223.65625 127.730469 222.929688 127.230469 222.339844 126.824219 C 221.121094 126.078125 220.46875 125.683594 220.46875 125.683594 C 220.46875 125.683594 221.082031 126.128906 222.234375 126.972656 C 222.789062 127.417969 223.472656 127.972656 224.277344 128.621094 C 224.664062 128.957031 225.074219 129.332031 225.515625 129.722656 C 225.738281 129.917969 225.964844 130.117188 226.199219 130.324219 C 226.433594 130.53125 226.65625 130.765625 226.894531 130.992188 C 228.820312 132.808594 230.980469 135.191406 233.148438 138.140625 C 235.304688 141.101562 237.386719 144.6875 239.144531 148.8125 C 239.992188 150.886719 240.808594 153.074219 241.417969 155.410156 C 241.5 155.699219 241.582031 155.992188 241.664062 156.285156 C 241.730469 156.582031 241.800781 156.878906 241.867188 157.175781 C 242 157.773438 242.15625 158.371094 242.273438 158.984375 C 242.382812 159.59375 242.496094 160.210938 242.609375 160.832031 C 242.671875 161.140625 242.707031 161.453125 242.75 161.769531 C 242.792969 162.085938 242.832031 162.398438 242.875 162.71875 C 243.183594 165.25 243.378906 167.875 243.292969 170.554688 C 243.222656 173.226562 242.960938 175.953125 242.484375 178.683594 C 241.996094 181.414062 241.257812 184.140625 240.304688 186.824219 C 239.355469 189.507812 238.183594 192.15625 236.757812 194.691406 C 235.332031 197.230469 233.703125 199.683594 231.882812 201.988281 C 230.054688 204.292969 228.007812 206.425781 225.804688 208.382812 C 223.609375 210.347656 221.242188 212.117188 218.753906 213.675781 C 216.261719 215.230469 213.632812 216.546875 210.945312 217.648438 C 208.253906 218.742188 205.492188 219.613281 202.714844 220.253906 C 199.933594 220.902344 197.125 221.273438 194.359375 221.445312 C 194.011719 221.46875 193.667969 221.492188 193.320312 221.511719 C 192.976562 221.535156 192.632812 221.527344 192.289062 221.535156 C 191.945312 221.542969 191.601562 221.546875 191.257812 221.554688 C 190.914062 221.5625 190.574219 221.566406 190.234375 221.546875 C 189.550781 221.527344 188.871094 221.507812 188.199219 221.484375 C 187.523438 221.433594 186.855469 221.378906 186.1875 221.328125 C 183.527344 221.058594 180.941406 220.625 178.460938 220.015625 C 177.84375 219.863281 177.238281 219.675781 176.628906 219.511719 C 176.328125 219.425781 176.023438 219.351562 175.722656 219.257812 C 175.425781 219.160156 175.132812 219.058594 174.839844 218.960938 C 174.253906 218.757812 173.65625 218.589844 173.089844 218.363281 C 172.519531 218.144531 171.953125 217.925781 171.390625 217.707031 C 169.167969 216.78125 167.054688 215.785156 165.113281 214.652344 C 163.148438 213.570312 161.347656 212.371094 159.699219 211.15625 C 158.054688 209.933594 156.554688 208.691406 155.203125 207.453125 C 152.53125 204.953125 150.40625 202.535156 148.824219 200.421875 C 147.238281 198.304688 146.105469 196.550781 145.386719 195.320312 C 145.011719 194.714844 144.761719 194.230469 144.574219 193.914062 C 144.390625 193.59375 144.296875 193.425781 144.296875 193.425781 C 144.296875 193.425781 144.378906 193.597656 144.53125 193.933594 C 144.691406 194.265625 144.902344 194.773438 145.226562 195.410156 C 145.859375 196.6875 146.839844 198.546875 148.308594 200.785156 C 149.769531 203.023438 151.75 205.628906 154.359375 208.320312 C 155.667969 209.660156 157.132812 211.019531 158.761719 212.359375 C 160.394531 213.699219 162.1875 215.019531 164.171875 216.230469 C 166.128906 217.488281 168.28125 218.609375 170.554688 219.660156 C 171.132812 219.90625 171.710938 220.15625 172.296875 220.410156 C 172.882812 220.664062 173.496094 220.863281 174.097656 221.09375 C 174.402344 221.207031 174.707031 221.320312 175.015625 221.433594 C 175.320312 221.542969 175.636719 221.632812 175.949219 221.734375 C 176.578125 221.925781 177.207031 222.140625 177.847656 222.320312 C 180.421875 223.042969 183.121094 223.578125 185.910156 223.925781 C 186.609375 224 187.3125 224.074219 188.015625 224.148438 C 188.726562 224.1875 189.441406 224.226562 190.15625 224.265625 C 190.515625 224.292969 190.875 224.296875 191.234375 224.292969 C 191.597656 224.296875 191.957031 224.296875 192.320312 224.300781 C 192.683594 224.300781 193.046875 224.3125 193.410156 224.300781 C 193.773438 224.285156 194.140625 224.269531 194.503906 224.253906 C 197.425781 224.121094 200.394531 223.78125 203.347656 223.148438 C 206.296875 222.519531 209.230469 221.636719 212.09375 220.5 " fill-opacity="1" fill-rule="nonzero"/><g clip-path="url(#642a3be5a7)"><path fill="#00adef" d="M 176.136719 233.414062 C 140.21875 222.484375 119.960938 184.503906 130.886719 148.582031 C 141.8125 112.660156 179.789062 92.398438 215.707031 103.324219 C 235.433594 109.328125 250.433594 123.492188 258.144531 140.992188 C 250.480469 119.828125 233.289062 102.410156 210.097656 95.351562 C 171.015625 83.460938 129.691406 105.511719 117.800781 144.601562 C 105.914062 183.691406 127.957031 225.019531 167.042969 236.910156 C 190.230469 243.96875 214.207031 239.074219 232.359375 225.765625 C 216.210938 236.007812 195.867188 239.417969 176.136719 233.414062 " fill-opacity="1" fill-rule="nonzero"/></g><g fill="#3871c1" fill-opacity="1"><g transform="translate(93.135679, 270.180333)"><g><path d="M 7.34375 -9.84375 L 7.34375 -3.71875 L 18.046875 -3.71875 L 18.046875 0 L 2.90625 0 L 2.90625 -22.421875 L 17.796875 -22.421875 L 17.796875 -18.703125 L 7.34375 -18.703125 L 7.34375 -13.46875 L 16.484375 -13.46875 L 16.484375 -9.84375 Z M 7.34375 -9.84375 "/></g></g></g><g fill="#3871c1" fill-opacity="1"><g transform="translate(112.411877, 270.180333)"><g><path d="M 10.984375 -22.421875 C 14.617188 -22.421875 17.394531 -21.476562 19.3125 -19.59375 C 21.226562 -17.71875 22.1875 -14.921875 22.1875 -11.203125 C 22.1875 -7.503906 21.226562 -4.710938 19.3125 -2.828125 C 17.394531 -0.941406 14.617188 0 10.984375 0 L 2.90625 0 L 2.90625 -22.421875 Z M 10.71875 -3.71875 C 13.03125 -3.71875 14.757812 -4.304688 15.90625 -5.484375 C 17.050781 -6.671875 17.625 -8.578125 17.625 -11.203125 C 17.625 -13.835938 17.050781 -15.742188 15.90625 -16.921875 C 14.757812 -18.097656 13.03125 -18.6875 10.71875 -18.6875 L 7.34375 -18.6875 L 7.34375 -3.71875 Z M 10.71875 -3.71875 "/></g></g></g><g fill="#3871c1" fill-opacity="1"><g transform="translate(136.38061, 270.180333)"><g><path d="M 11.890625 0.328125 C 8.796875 0.328125 6.503906 -0.40625 5.015625 -1.875 C 3.523438 -3.34375 2.78125 -5.519531 2.78125 -8.40625 L 2.78125 -22.421875 L 7.109375 -22.421875 L 7.109375 -8.4375 C 7.109375 -6.800781 7.503906 -5.570312 8.296875 -4.75 C 9.085938 -3.9375 10.285156 -3.53125 11.890625 -3.53125 C 15.066406 -3.53125 16.65625 -5.164062 16.65625 -8.4375 L 16.65625 -22.421875 L 21 -22.421875 L 21 -8.40625 C 21 -5.519531 20.25 -3.34375 18.75 -1.875 C 17.257812 -0.40625 14.972656 0.328125 11.890625 0.328125 Z M 11.890625 0.328125 "/></g></g></g><g fill="#3871c1" fill-opacity="1"><g transform="translate(160.149988, 270.180333)"><g><path d="M 12.25 0.328125 C 10.1875 0.328125 8.367188 -0.0976562 6.796875 -0.953125 C 5.222656 -1.816406 3.988281 -3.109375 3.09375 -4.828125 C 2.207031 -6.554688 1.765625 -8.679688 1.765625 -11.203125 C 1.765625 -13.734375 2.207031 -15.859375 3.09375 -17.578125 C 3.988281 -19.304688 5.222656 -20.597656 6.796875 -21.453125 C 8.367188 -22.304688 10.1875 -22.734375 12.25 -22.734375 C 14.40625 -22.734375 16.238281 -22.3125 17.75 -21.46875 C 19.257812 -20.632812 20.335938 -19.351562 20.984375 -17.625 L 17.75 -15.640625 L 17.359375 -15.65625 C 16.878906 -16.820312 16.226562 -17.65625 15.40625 -18.15625 C 14.582031 -18.664062 13.53125 -18.921875 12.25 -18.921875 C 10.394531 -18.921875 8.941406 -18.304688 7.890625 -17.078125 C 6.847656 -15.847656 6.328125 -13.890625 6.328125 -11.203125 C 6.328125 -8.535156 6.847656 -6.585938 7.890625 -5.359375 C 8.941406 -4.128906 10.394531 -3.515625 12.25 -3.515625 C 15.164062 -3.515625 16.953125 -4.929688 17.609375 -7.765625 L 17.984375 -7.765625 L 21.25 -6.0625 C 20.632812 -3.9375 19.585938 -2.335938 18.109375 -1.265625 C 16.628906 -0.203125 14.675781 0.328125 12.25 0.328125 Z M 12.25 0.328125 "/></g></g></g><g fill="#3871c1" fill-opacity="1"><g transform="translate(182.140495, 270.180333)"><g><path d="M 21.515625 0 L 16.859375 0 L 15.171875 -5.171875 L 6.578125 -5.171875 L 4.890625 0 L 0.34375 0 L 8.078125 -22.421875 L 13.765625 -22.421875 Z M 10.65625 -17.75 L 7.78125 -8.890625 L 13.9375 -8.890625 L 11.046875 -17.75 Z M 10.65625 -17.75 "/></g></g></g><g fill="#3871c1" fill-opacity="1"><g transform="translate(203.992987, 270.180333)"><g><path d="M 17.96875 -22.421875 L 17.96875 -18.6875 L 11.5 -18.6875 L 11.5 0 L 7.078125 0 L 7.078125 -18.6875 L 0.609375 -18.6875 L 0.609375 -22.421875 Z M 17.96875 -22.421875 "/></g></g></g><g fill="#3871c1" fill-opacity="1"><g transform="translate(222.579107, 270.180333)"><g><path d="M 7.34375 0 L 2.90625 0 L 2.90625 -22.421875 L 7.34375 -22.421875 Z M 7.34375 0 "/></g></g></g><g fill="#3871c1" fill-opacity="1"><g transform="translate(232.853612, 270.180333)"><g><path d="M 12.21875 0.328125 C 10.164062 0.328125 8.351562 -0.0859375 6.78125 -0.921875 C 5.21875 -1.765625 3.988281 -3.046875 3.09375 -4.765625 C 2.207031 -6.492188 1.765625 -8.640625 1.765625 -11.203125 C 1.765625 -13.773438 2.207031 -15.921875 3.09375 -17.640625 C 3.988281 -19.367188 5.21875 -20.648438 6.78125 -21.484375 C 8.351562 -22.316406 10.164062 -22.734375 12.21875 -22.734375 C 14.269531 -22.734375 16.078125 -22.316406 17.640625 -21.484375 C 19.210938 -20.660156 20.441406 -19.382812 21.328125 -17.65625 C 22.210938 -15.925781 22.65625 -13.773438 22.65625 -11.203125 C 22.65625 -8.640625 22.210938 -6.492188 21.328125 -4.765625 C 20.441406 -3.035156 19.210938 -1.753906 17.640625 -0.921875 C 16.078125 -0.0859375 14.269531 0.328125 12.21875 0.328125 Z M 12.21875 -3.53125 C 14.125 -3.53125 15.578125 -4.140625 16.578125 -5.359375 C 17.578125 -6.578125 18.078125 -8.523438 18.078125 -11.203125 C 18.078125 -13.890625 17.578125 -15.84375 16.578125 -17.0625 C 15.578125 -18.289062 14.125 -18.90625 12.21875 -18.90625 C 10.3125 -18.90625 8.851562 -18.289062 7.84375 -17.0625 C 6.832031 -15.84375 6.328125 -13.890625 6.328125 -11.203125 C 6.328125 -8.523438 6.832031 -6.578125 7.84375 -5.359375 C 8.851562 -4.140625 10.3125 -3.53125 12.21875 -3.53125 Z M 12.21875 -3.53125 "/></g></g></g><g fill="#3871c1" fill-opacity="1"><g transform="translate(257.282397, 270.180333)"><g><path d="M 7.203125 0 L 2.90625 0 L 2.90625 -22.421875 L 7.984375 -22.421875 L 16.984375 -7.96875 L 17.390625 -8.03125 L 17.390625 -22.421875 L 21.65625 -22.421875 L 21.65625 0 L 17.109375 0 L 7.59375 -15.421875 L 7.203125 -15.359375 Z M 7.203125 0 "/></g></g></g><g fill="#3871c1" fill-opacity="1"><g transform="translate(106.010102, 288.468291)"><g><path d="M 2.75 -10.234375 L 2.75 -1 L 7.671875 -1 L 7.671875 0 L 1.546875 0 L 1.546875 -10.234375 Z M 2.75 -10.234375 "/></g></g></g><g fill="#3871c1" fill-opacity="1"><g transform="translate(122.006046, 288.468291)"><g><path d="M 4.421875 0.140625 C 3.703125 0.140625 3.070312 -0.0078125 2.53125 -0.3125 C 1.988281 -0.625 1.570312 -1.078125 1.28125 -1.671875 C 0.988281 -2.273438 0.84375 -3.003906 0.84375 -3.859375 C 0.84375 -4.710938 0.988281 -5.4375 1.28125 -6.03125 C 1.570312 -6.632812 1.988281 -7.085938 2.53125 -7.390625 C 3.070312 -7.703125 3.703125 -7.859375 4.421875 -7.859375 C 5.148438 -7.859375 5.785156 -7.703125 6.328125 -7.390625 C 6.867188 -7.085938 7.285156 -6.632812 7.578125 -6.03125 C 7.867188 -5.4375 8.015625 -4.710938 8.015625 -3.859375 C 8.015625 -3.003906 7.867188 -2.273438 7.578125 -1.671875 C 7.285156 -1.078125 6.867188 -0.625 6.328125 -0.3125 C 5.785156 -0.0078125 5.148438 0.140625 4.421875 0.140625 Z M 4.421875 -0.875 C 5.191406 -0.875 5.78125 -1.113281 6.1875 -1.59375 C 6.601562 -2.082031 6.8125 -2.835938 6.8125 -3.859375 C 6.8125 -4.878906 6.601562 -5.628906 6.1875 -6.109375 C 5.78125 -6.597656 5.191406 -6.84375 4.421875 -6.84375 C 3.660156 -6.84375 3.070312 -6.597656 2.65625 -6.109375 C 2.25 -5.617188 2.046875 -4.867188 2.046875 -3.859375 C 2.046875 -2.835938 2.25 -2.082031 2.65625 -1.59375 C 3.070312 -1.113281 3.660156 -0.875 4.421875 -0.875 Z M 4.421875 -0.875 "/></g></g></g><g fill="#3871c1" fill-opacity="1"><g transform="translate(138.750777, 288.468291)"><g><path d="M 3.96875 3.28125 C 2.75 3.28125 1.859375 3.078125 1.296875 2.671875 C 0.742188 2.265625 0.46875 1.722656 0.46875 1.046875 C 0.46875 0.617188 0.597656 0.273438 0.859375 0.015625 C 1.117188 -0.242188 1.5 -0.425781 2 -0.53125 L 2 -0.6875 C 1.757812 -0.820312 1.578125 -0.976562 1.453125 -1.15625 C 1.335938 -1.34375 1.28125 -1.5625 1.28125 -1.8125 C 1.28125 -2.113281 1.375 -2.351562 1.5625 -2.53125 C 1.757812 -2.71875 2.039062 -2.863281 2.40625 -2.96875 L 2.40625 -3.109375 C 1.570312 -3.554688 1.15625 -4.28125 1.15625 -5.28125 C 1.15625 -5.78125 1.269531 -6.222656 1.5 -6.609375 C 1.726562 -7.003906 2.050781 -7.3125 2.46875 -7.53125 C 2.894531 -7.75 3.390625 -7.859375 3.953125 -7.859375 C 4.609375 -7.859375 5.148438 -7.71875 5.578125 -7.4375 C 5.742188 -7.613281 5.867188 -7.804688 5.953125 -8.015625 C 6.035156 -8.222656 6.085938 -8.457031 6.109375 -8.71875 L 6.25 -8.8125 L 7.1875 -8.59375 C 7.144531 -8.195312 7.03125 -7.863281 6.84375 -7.59375 C 6.65625 -7.320312 6.382812 -7.097656 6.03125 -6.921875 L 6.03125 -6.78125 C 6.28125 -6.582031 6.460938 -6.347656 6.578125 -6.078125 C 6.703125 -5.816406 6.765625 -5.515625 6.765625 -5.171875 C 6.765625 -4.679688 6.644531 -4.242188 6.40625 -3.859375 C 6.175781 -3.472656 5.847656 -3.164062 5.421875 -2.9375 C 5.003906 -2.71875 4.515625 -2.609375 3.953125 -2.609375 C 3.890625 -2.609375 3.773438 -2.613281 3.609375 -2.625 C 3.421875 -2.632812 3.285156 -2.640625 3.203125 -2.640625 C 2.953125 -2.640625 2.753906 -2.578125 2.609375 -2.453125 C 2.472656 -2.328125 2.40625 -2.164062 2.40625 -1.96875 C 2.40625 -1.726562 2.484375 -1.550781 2.640625 -1.4375 C 2.796875 -1.320312 3.050781 -1.257812 3.40625 -1.25 L 5.234375 -1.1875 C 6.023438 -1.15625 6.609375 -0.96875 6.984375 -0.625 C 7.367188 -0.289062 7.5625 0.179688 7.5625 0.796875 C 7.5625 1.265625 7.4375 1.679688 7.1875 2.046875 C 6.9375 2.421875 6.539062 2.71875 6 2.9375 C 5.46875 3.164062 4.789062 3.28125 3.96875 3.28125 Z M 3.953125 -3.59375 C 4.503906 -3.59375 4.925781 -3.734375 5.21875 -4.015625 C 5.519531 -4.304688 5.671875 -4.707031 5.671875 -5.21875 C 5.671875 -5.75 5.519531 -6.160156 5.21875 -6.453125 C 4.925781 -6.742188 4.503906 -6.890625 3.953125 -6.890625 C 3.410156 -6.890625 2.992188 -6.742188 2.703125 -6.453125 C 2.410156 -6.171875 2.265625 -5.757812 2.265625 -5.21875 C 2.265625 -4.695312 2.410156 -4.296875 2.703125 -4.015625 C 2.992188 -3.734375 3.410156 -3.59375 3.953125 -3.59375 Z M 3.96875 2.296875 C 4.539062 2.296875 5.003906 2.234375 5.359375 2.109375 C 5.722656 1.984375 5.984375 1.816406 6.140625 1.609375 C 6.304688 1.398438 6.390625 1.164062 6.390625 0.90625 C 6.390625 0.675781 6.34375 0.488281 6.25 0.34375 C 6.164062 0.207031 6.03125 0.101562 5.84375 0.03125 C 5.65625 -0.03125 5.394531 -0.0703125 5.0625 -0.09375 L 3.328125 -0.171875 L 3.078125 -0.171875 C 2.117188 -0.160156 1.640625 0.210938 1.640625 0.953125 C 1.640625 1.847656 2.414062 2.296875 3.96875 2.296875 Z M 3.96875 2.296875 "/></g></g></g><g fill="#3871c1" fill-opacity="1"><g transform="translate(154.543771, 288.468291)"><g><path d="M 4.421875 0.140625 C 3.703125 0.140625 3.070312 -0.0078125 2.53125 -0.3125 C 1.988281 -0.625 1.570312 -1.078125 1.28125 -1.671875 C 0.988281 -2.273438 0.84375 -3.003906 0.84375 -3.859375 C 0.84375 -4.710938 0.988281 -5.4375 1.28125 -6.03125 C 1.570312 -6.632812 1.988281 -7.085938 2.53125 -7.390625 C 3.070312 -7.703125 3.703125 -7.859375 4.421875 -7.859375 C 5.148438 -7.859375 5.785156 -7.703125 6.328125 -7.390625 C 6.867188 -7.085938 7.285156 -6.632812 7.578125 -6.03125 C 7.867188 -5.4375 8.015625 -4.710938 8.015625 -3.859375 C 8.015625 -3.003906 7.867188 -2.273438 7.578125 -1.671875 C 7.285156 -1.078125 6.867188 -0.625 6.328125 -0.3125 C 5.785156 -0.0078125 5.148438 0.140625 4.421875 0.140625 Z M 4.421875 -0.875 C 5.191406 -0.875 5.78125 -1.113281 6.1875 -1.59375 C 6.601562 -2.082031 6.8125 -2.835938 6.8125 -3.859375 C 6.8125 -4.878906 6.601562 -5.628906 6.1875 -6.109375 C 5.78125 -6.597656 5.191406 -6.84375 4.421875 -6.84375 C 3.660156 -6.84375 3.070312 -6.597656 2.65625 -6.109375 C 2.25 -5.617188 2.046875 -4.867188 2.046875 -3.859375 C 2.046875 -2.835938 2.25 -2.082031 2.65625 -1.59375 C 3.070312 -1.113281 3.660156 -0.875 4.421875 -0.875 Z M 4.421875 -0.875 "/></g></g></g><g fill="#3871c1" fill-opacity="1"><g transform="translate(171.288501, 288.468291)"><g/></g></g><g fill="#3871c1" fill-opacity="1"><g transform="translate(182.686713, 288.468291)"><g><path d="M 4.859375 -10.234375 C 5.890625 -10.234375 6.773438 -10.046875 7.515625 -9.671875 C 8.265625 -9.296875 8.835938 -8.726562 9.234375 -7.96875 C 9.640625 -7.207031 9.84375 -6.253906 9.84375 -5.109375 C 9.84375 -3.960938 9.640625 -3.007812 9.234375 -2.25 C 8.835938 -1.488281 8.265625 -0.921875 7.515625 -0.546875 C 6.773438 -0.179688 5.890625 0 4.859375 0 L 1.546875 0 L 1.546875 -10.234375 Z M 4.734375 -1.015625 C 5.585938 -1.015625 6.296875 -1.144531 6.859375 -1.40625 C 7.421875 -1.675781 7.84375 -2.113281 8.125 -2.71875 C 8.414062 -3.320312 8.5625 -4.117188 8.5625 -5.109375 C 8.5625 -6.109375 8.414062 -6.90625 8.125 -7.5 C 7.84375 -8.101562 7.421875 -8.535156 6.859375 -8.796875 C 6.296875 -9.066406 5.585938 -9.203125 4.734375 -9.203125 L 2.75 -9.203125 L 2.75 -1.015625 Z M 4.734375 -1.015625 "/></g></g></g><g fill="#3871c1" fill-opacity="1"><g transform="translate(201.446886, 288.468291)"><g><path d="M 7.359375 -3.59375 L 2.046875 -3.59375 C 2.078125 -2.65625 2.300781 -1.96875 2.71875 -1.53125 C 3.132812 -1.09375 3.707031 -0.875 4.4375 -0.875 C 4.988281 -0.875 5.429688 -0.972656 5.765625 -1.171875 C 6.109375 -1.367188 6.375 -1.675781 6.5625 -2.09375 L 6.703125 -2.09375 L 7.453125 -1.65625 C 7.222656 -1.09375 6.863281 -0.648438 6.375 -0.328125 C 5.882812 -0.015625 5.238281 0.140625 4.4375 0.140625 C 3.695312 0.140625 3.054688 -0.00390625 2.515625 -0.296875 C 1.984375 -0.585938 1.570312 -1.03125 1.28125 -1.625 C 0.988281 -2.226562 0.84375 -2.972656 0.84375 -3.859375 C 0.84375 -4.734375 0.992188 -5.46875 1.296875 -6.0625 C 1.609375 -6.664062 2.023438 -7.113281 2.546875 -7.40625 C 3.078125 -7.707031 3.6875 -7.859375 4.375 -7.859375 C 5.363281 -7.859375 6.132812 -7.578125 6.6875 -7.015625 C 7.238281 -6.460938 7.519531 -5.640625 7.53125 -4.546875 C 7.53125 -4.117188 7.519531 -3.832031 7.5 -3.6875 Z M 6.40625 -4.546875 C 6.382812 -5.367188 6.203125 -5.960938 5.859375 -6.328125 C 5.515625 -6.703125 5.019531 -6.890625 4.375 -6.890625 C 3.695312 -6.890625 3.164062 -6.703125 2.78125 -6.328125 C 2.394531 -5.953125 2.160156 -5.359375 2.078125 -4.546875 Z M 6.40625 -4.546875 "/></g></g></g><g fill="#3871c1" fill-opacity="1"><g transform="translate(217.561791, 288.468291)"><g><path d="M 3.515625 0.140625 C 3.035156 0.140625 2.585938 0.078125 2.171875 -0.046875 C 1.753906 -0.171875 1.40625 -0.34375 1.125 -0.5625 C 0.84375 -0.789062 0.644531 -1.046875 0.53125 -1.328125 L 1.203125 -2.03125 L 1.34375 -2.03125 C 1.59375 -1.644531 1.894531 -1.351562 2.25 -1.15625 C 2.601562 -0.96875 3.023438 -0.875 3.515625 -0.875 C 4.085938 -0.875 4.519531 -0.984375 4.8125 -1.203125 C 5.113281 -1.429688 5.265625 -1.742188 5.265625 -2.140625 C 5.265625 -2.441406 5.171875 -2.691406 4.984375 -2.890625 C 4.804688 -3.085938 4.519531 -3.234375 4.125 -3.328125 L 2.8125 -3.65625 C 2.125 -3.820312 1.617188 -4.085938 1.296875 -4.453125 C 0.972656 -4.816406 0.8125 -5.265625 0.8125 -5.796875 C 0.8125 -6.210938 0.921875 -6.578125 1.140625 -6.890625 C 1.359375 -7.203125 1.664062 -7.441406 2.0625 -7.609375 C 2.46875 -7.773438 2.945312 -7.859375 3.5 -7.859375 C 4.207031 -7.859375 4.765625 -7.757812 5.171875 -7.5625 C 5.585938 -7.363281 5.910156 -7.085938 6.140625 -6.734375 L 5.484375 -6.109375 L 5.359375 -6.109375 C 5.109375 -6.390625 4.835938 -6.59375 4.546875 -6.71875 C 4.253906 -6.84375 3.90625 -6.90625 3.5 -6.90625 C 3 -6.90625 2.613281 -6.8125 2.34375 -6.625 C 2.070312 -6.445312 1.9375 -6.1875 1.9375 -5.84375 C 1.9375 -5.53125 2.03125 -5.28125 2.21875 -5.09375 C 2.40625 -4.90625 2.738281 -4.75 3.21875 -4.625 L 4.5 -4.328125 C 5.164062 -4.160156 5.648438 -3.894531 5.953125 -3.53125 C 6.253906 -3.164062 6.40625 -2.703125 6.40625 -2.140625 C 6.40625 -1.691406 6.296875 -1.296875 6.078125 -0.953125 C 5.867188 -0.609375 5.546875 -0.335938 5.109375 -0.140625 C 4.671875 0.046875 4.140625 0.140625 3.515625 0.140625 Z M 3.515625 0.140625 "/></g></g></g><g fill="#3871c1" fill-opacity="1"><g transform="translate(232.584999, 288.468291)"><g><path d="M 1.921875 -9.203125 C 1.671875 -9.203125 1.46875 -9.273438 1.3125 -9.421875 C 1.164062 -9.578125 1.09375 -9.773438 1.09375 -10.015625 C 1.09375 -10.242188 1.164062 -10.429688 1.3125 -10.578125 C 1.46875 -10.734375 1.671875 -10.8125 1.921875 -10.8125 C 2.160156 -10.8125 2.351562 -10.734375 2.5 -10.578125 C 2.65625 -10.429688 2.734375 -10.242188 2.734375 -10.015625 C 2.734375 -9.773438 2.65625 -9.578125 2.5 -9.421875 C 2.351562 -9.273438 2.160156 -9.203125 1.921875 -9.203125 Z M 1.34375 0 L 1.34375 -7.71875 L 2.484375 -7.71875 L 2.484375 0 Z M 1.34375 0 "/></g></g></g><g fill="#3871c1" fill-opacity="1"><g transform="translate(244.298129, 288.468291)"><g><path d="M 3.96875 3.28125 C 2.75 3.28125 1.859375 3.078125 1.296875 2.671875 C 0.742188 2.265625 0.46875 1.722656 0.46875 1.046875 C 0.46875 0.617188 0.597656 0.273438 0.859375 0.015625 C 1.117188 -0.242188 1.5 -0.425781 2 -0.53125 L 2 -0.6875 C 1.757812 -0.820312 1.578125 -0.976562 1.453125 -1.15625 C 1.335938 -1.34375 1.28125 -1.5625 1.28125 -1.8125 C 1.28125 -2.113281 1.375 -2.351562 1.5625 -2.53125 C 1.757812 -2.71875 2.039062 -2.863281 2.40625 -2.96875 L 2.40625 -3.109375 C 1.570312 -3.554688 1.15625 -4.28125 1.15625 -5.28125 C 1.15625 -5.78125 1.269531 -6.222656 1.5 -6.609375 C 1.726562 -7.003906 2.050781 -7.3125 2.46875 -7.53125 C 2.894531 -7.75 3.390625 -7.859375 3.953125 -7.859375 C 4.609375 -7.859375 5.148438 -7.71875 5.578125 -7.4375 C 5.742188 -7.613281 5.867188 -7.804688 5.953125 -8.015625 C 6.035156 -8.222656 6.085938 -8.457031 6.109375 -8.71875 L 6.25 -8.8125 L 7.1875 -8.59375 C 7.144531 -8.195312 7.03125 -7.863281 6.84375 -7.59375 C 6.65625 -7.320312 6.382812 -7.097656 6.03125 -6.921875 L 6.03125 -6.78125 C 6.28125 -6.582031 6.460938 -6.347656 6.578125 -6.078125 C 6.703125 -5.816406 6.765625 -5.515625 6.765625 -5.171875 C 6.765625 -4.679688 6.644531 -4.242188 6.40625 -3.859375 C 6.175781 -3.472656 5.847656 -3.164062 5.421875 -2.9375 C 5.003906 -2.71875 4.515625 -2.609375 3.953125 -2.609375 C 3.890625 -2.609375 3.773438 -2.613281 3.609375 -2.625 C 3.421875 -2.632812 3.285156 -2.640625 3.203125 -2.640625 C 2.953125 -2.640625 2.753906 -2.578125 2.609375 -2.453125 C 2.472656 -2.328125 2.40625 -2.164062 2.40625 -1.96875 C 2.40625 -1.726562 2.484375 -1.550781 2.640625 -1.4375 C 2.796875 -1.320312 3.050781 -1.257812 3.40625 -1.25 L 5.234375 -1.1875 C 6.023438 -1.15625 6.609375 -0.96875 6.984375 -0.625 C 7.367188 -0.289062 7.5625 0.179688 7.5625 0.796875 C 7.5625 1.265625 7.4375 1.679688 7.1875 2.046875 C 6.9375 2.421875 6.539062 2.71875 6 2.9375 C 5.46875 3.164062 4.789062 3.28125 3.96875 3.28125 Z M 3.953125 -3.59375 C 4.503906 -3.59375 4.925781 -3.734375 5.21875 -4.015625 C 5.519531 -4.304688 5.671875 -4.707031 5.671875 -5.21875 C 5.671875 -5.75 5.519531 -6.160156 5.21875 -6.453125 C 4.925781 -6.742188 4.503906 -6.890625 3.953125 -6.890625 C 3.410156 -6.890625 2.992188 -6.742188 2.703125 -6.453125 C 2.410156 -6.171875 2.265625 -5.757812 2.265625 -5.21875 C 2.265625 -4.695312 2.410156 -4.296875 2.703125 -4.015625 C 2.992188 -3.734375 3.410156 -3.59375 3.953125 -3.59375 Z M 3.96875 2.296875 C 4.539062 2.296875 5.003906 2.234375 5.359375 2.109375 C 5.722656 1.984375 5.984375 1.816406 6.140625 1.609375 C 6.304688 1.398438 6.390625 1.164062 6.390625 0.90625 C 6.390625 0.675781 6.34375 0.488281 6.25 0.34375 C 6.164062 0.207031 6.03125 0.101562 5.84375 0.03125 C 5.65625 -0.03125 5.394531 -0.0703125 5.0625 -0.09375 L 3.328125 -0.171875 L 3.078125 -0.171875 C 2.117188 -0.160156 1.640625 0.210938 1.640625 0.953125 C 1.640625 1.847656 2.414062 2.296875 3.96875 2.296875 Z M 3.96875 2.296875 "/></g></g></g><g fill="#3871c1" fill-opacity="1"><g transform="translate(260.091123, 288.468291)"><g><path d="M 1.34375 0 L 1.34375 -7.71875 L 2.421875 -7.71875 L 2.421875 -6.5 L 2.578125 -6.46875 C 2.828125 -6.925781 3.148438 -7.269531 3.546875 -7.5 C 3.953125 -7.738281 4.441406 -7.859375 5.015625 -7.859375 C 5.941406 -7.859375 6.613281 -7.617188 7.03125 -7.140625 C 7.445312 -6.671875 7.65625 -5.945312 7.65625 -4.96875 L 7.65625 0 L 6.515625 0 L 6.515625 -4.9375 C 6.515625 -5.40625 6.453125 -5.78125 6.328125 -6.0625 C 6.210938 -6.34375 6.03125 -6.546875 5.78125 -6.671875 C 5.539062 -6.804688 5.21875 -6.875 4.8125 -6.875 C 4.113281 -6.875 3.550781 -6.640625 3.125 -6.171875 C 2.695312 -5.710938 2.484375 -4.972656 2.484375 -3.953125 L 2.484375 0 Z M 1.34375 0 "/></g></g></g></svg>